<?xml version="1.0" encoding="UTF-8" standalone="no"?>
<svg
   width="932.179"
   height="932.179"
   fill="#496e8f"
   version="1.1"
   id="svg1"
   sodipodi:docname="logo.svg"
   inkscape:version="1.3.2 (1:1.3.2+202311252150+091e20ef0f)"
   xmlns:inkscape="http://www.inkscape.org/namespaces/inkscape"
   xmlns:sodipodi="http://sodipodi.sourceforge.net/DTD/sodipodi-0.dtd"
   xmlns="http://www.w3.org/2000/svg"
   xmlns:svg="http://www.w3.org/2000/svg">
  <defs
     id="defs1">
    <linearGradient
       id="linearGradient1379"
       inkscape:swatch="solid">
      <stop
         style="stop-color:#941cff;stop-opacity:1;"
         offset="0"
         id="stop1377" />
    </linearGradient>
  </defs>
  <sodipodi:namedview
     id="namedview1"
     pagecolor="#ffffff"
     bordercolor="#666666"
     borderopacity="1.0"
     inkscape:showpageshadow="2"
     inkscape:pageopacity="0.0"
     inkscape:pagecheckerboard="0"
     inkscape:deskcolor="#d1d1d1"
     inkscape:zoom="0.5459871"
     inkscape:cx="574.18939"
     inkscape:cy="622.72534"
     inkscape:window-width="1920"
     inkscape:window-height="964"
     inkscape:window-x="0"
     inkscape:window-y="0"
     inkscape:window-maximized="1"
     inkscape:current-layer="svg1" />
  <path
     style="fill:#7c4dff;fill-opacity:1;fill-rule:evenodd;stroke:none;stroke-width:7.53235;stroke-miterlimit:4;stroke-dasharray:none"
     id="path5222"
     stroke-miterlimit="4"
     d="m 593.52834,384.83868 v 84.92308 h 83.70125 v -84.92308 z m -334.8051,0 v 84.92308 h 83.70125 v -84.92308 z m 0,339.69216 h 167.40251 v 84.92307 H 258.72324 Z m 418.50635,0 v 84.92307 H 509.82708 v -84.92307 z m 0,-509.53823 v -84.92308 h 83.70125 v 84.92308 z m -418.50635,0 h 83.70125 v 84.92307 h 251.10385 v -84.92307 h 83.70125 v 84.92307 h 83.70125 v 84.923 h 83.70126 v 84.92308 h 83.70133 V 724.53084 H 844.6321 V 554.68476 h -83.70126 v 169.84608 h -83.70125 v -84.923 H 258.72324 v 84.923 H 175.02198 V 554.68476 H 91.320651 V 724.53084 H 7.6193951 V 469.76176 H 91.320651 v -84.92308 h 83.701329 v -84.923 h 83.70126 z m -83.70126,-84.92308 h 83.70126 v 84.92308 h -83.70126 z" />
</svg>
